<?xml version="1.0" standalone="no"?>
<!DOCTYPE svg PUBLIC "-//W3C//DTD SVG 20010904//EN"
 "http://www.w3.org/TR/2001/REC-SVG-20010904/DTD/svg10.dtd">
<svg version="1.0" xmlns="http://www.w3.org/2000/svg"
 width="1024.000000pt" height="1024.000000pt" viewBox="0 0 1024.000000 1024.000000"
 preserveAspectRatio="xMidYMid meet">

<g transform="translate(0.000000,1024.000000) scale(0.100000,-0.100000)"
fill="#000000" stroke="none">
<path d="M2540 9903 c-112 -20 -194 -68 -288 -168 -200 -214 -385 -770 -481
-1445 -31 -218 -37 -271 -46 -390 -3 -41 -10 -120 -15 -175 -14 -143 -30 -659
-25 -795 7 -163 15 -309 21 -350 5 -31 -14 -74 -140 -320 -175 -345 -256 -525
-331 -735 -54 -152 -116 -372 -129 -460 -4 -22 -8 -47 -11 -55 -15 -49 -35
-299 -35 -435 0 -149 -1 -161 -20 -173 -22 -13 -28 -62 -7 -62 27 0 36 -20 51
-111 41 -253 141 -510 286 -736 13 -20 10 -26 -44 -83 -38 -42 -56 -69 -54
-83 5 -34 21 -30 88 21 l64 49 116 -117 c63 -65 138 -136 165 -158 46 -38 49
-43 37 -62 -22 -36 -108 -260 -140 -365 -64 -209 -172 -693 -213 -955 -27
-172 -56 -382 -64 -460 -3 -36 -10 -92 -15 -125 -5 -33 -14 -114 -20 -180 -6
-66 -13 -138 -15 -160 -7 -56 -35 -643 -35 -737 l0 -78 79 0 79 0 6 248 c4
136 9 265 11 287 2 22 9 108 15 190 18 264 70 695 116 970 86 517 192 932 308
1206 l37 87 80 -48 c113 -68 208 -105 386 -151 143 -36 165 -39 267 -37 103 3
111 4 111 23 0 17 -14 23 -100 41 -55 12 -126 34 -159 48 -32 14 -99 42 -150
62 -132 53 -282 138 -404 229 -107 79 -287 246 -344 318 l-31 38 29 30 c127
133 425 312 754 452 186 79 431 154 695 212 44 10 90 22 103 28 43 20 16 77
-38 77 -33 0 -188 -31 -322 -65 -243 -61 -529 -173 -743 -291 -136 -74 -368
-226 -465 -304 -74 -59 -64 -63 -130 56 -100 179 -179 452 -192 659 l-3 50 50
24 c135 64 507 169 693 195 353 50 786 40 1078 -24 83 -18 114 -14 114 15 0
44 -163 92 -425 125 -128 16 -496 13 -670 -5 -265 -28 -490 -80 -710 -165 -60
-23 -118 -44 -128 -47 -16 -5 -17 3 -12 123 16 403 83 659 311 1185 385 891
884 1526 1499 1904 61 38 124 78 140 91 17 12 79 48 138 79 60 32 111 64 114
71 10 26 -17 212 -46 327 -32 120 -117 357 -195 535 -121 280 -359 622 -500
719 -93 64 -89 47 26 -108 252 -340 371 -573 511 -1004 31 -93 65 -208 77
-255 11 -47 23 -92 26 -101 2 -9 -33 20 -78 65 -140 137 -329 248 -491 288
-88 22 -137 19 -137 -8 0 -16 19 -28 210 -136 182 -103 286 -172 357 -241 l63
-60 -85 -49 -85 -49 -107 30 c-120 33 -226 51 -303 51 -44 0 -51 -3 -48 -17 4
-22 129 -73 258 -106 l94 -23 -70 -49 c-271 -189 -469 -357 -663 -561 -104
-110 -264 -302 -336 -404 -21 -30 -43 -59 -48 -65 -15 -16 -1 834 17 1025 50
525 114 878 226 1253 57 189 96 290 158 409 68 133 131 213 202 256 53 33 58
33 147 30 83 -4 98 -7 176 -46 139 -69 314 -235 511 -486 176 -224 482 -685
595 -897 l51 -95 -33 -16 c-44 -21 -97 -67 -97 -83 0 -24 19 -27 98 -11 122
24 436 64 562 71 63 4 123 9 134 11 10 2 96 5 190 7 431 10 1038 -41 1301
-110 107 -28 123 -31 135 -23 23 14 -2 52 -60 89 l-59 38 56 99 c122 217 363
552 551 764 216 245 411 419 591 529 122 74 181 94 276 95 70 1 86 -2 126 -26
64 -37 112 -94 158 -186 222 -442 382 -1544 369 -2544 l-3 -246 -92 121 c-275
365 -555 641 -899 889 l-132 95 130 36 c265 75 285 101 71 95 -116 -4 -168
-10 -240 -30 l-92 -25 -56 31 -55 32 54 66 c100 121 232 223 411 318 153 82
174 107 78 96 -195 -23 -415 -149 -560 -320 l-41 -50 27 100 c64 227 227 619
339 814 55 96 129 201 238 336 63 78 114 146 114 153 0 21 -28 11 -86 -32
-143 -106 -324 -347 -452 -603 -153 -307 -246 -580 -273 -806 -15 -118 -18
-112 109 -181 622 -342 1077 -817 1451 -1515 189 -355 328 -708 421 -1067 66
-256 83 -381 84 -590 0 -406 -105 -814 -288 -1118 -143 -239 -312 -411 -542
-551 -109 -66 -337 -162 -477 -201 -50 -14 -58 -19 -55 -38 5 -34 63 -41 193
-22 193 28 385 104 554 220 55 37 83 51 86 43 3 -7 28 -94 55 -193 28 -99 87
-297 130 -440 239 -787 434 -1653 505 -2245 11 -94 7 -90 92 -90 l76 0 -7 73
c-4 39 -20 149 -36 242 -16 94 -32 188 -36 210 -6 43 -27 158 -69 380 -81 433
-278 1196 -445 1730 -24 74 -81 282 -110 393 l-21 83 52 57 c252 275 411 635
475 1077 19 127 26 500 12 624 -46 404 -227 952 -469 1420 -44 84 -77 161 -75
170 3 9 10 113 16 231 15 259 0 798 -30 1156 -71 833 -255 1599 -436 1816
-103 124 -239 186 -377 175 -145 -13 -295 -81 -479 -220 -261 -196 -475 -426
-794 -857 -139 -188 -192 -268 -258 -392 -50 -94 -61 -107 -79 -103 -50 11
-291 47 -407 60 -428 49 -965 37 -1326 -29 l-120 -22 -80 139 c-83 147 -132
223 -380 587 -376 553 -658 827 -913 885 -71 16 -149 24 -181 18z"/>
<path d="M3745 7486 c-65 -30 -95 -87 -95 -183 0 -65 12 -97 44 -118 51 -34
120 12 170 113 37 73 44 140 20 170 -24 28 -96 38 -139 18z"/>
<path d="M5968 7483 c-32 -36 -36 -57 -28 -133 11 -116 47 -184 111 -210 71
-30 112 20 110 134 -1 85 -34 162 -85 201 -38 29 -86 32 -108 8z"/>
<path d="M3345 6893 c-103 -15 -336 -91 -428 -140 -70 -38 -244 -212 -301
-300 -115 -179 -177 -392 -178 -611 0 -132 13 -202 60 -312 56 -132 99 -199
181 -280 121 -120 260 -198 455 -254 247 -72 614 14 841 197 187 151 280 317
325 583 39 227 21 384 -68 594 -56 132 -99 198 -187 285 -158 157 -376 247
-587 244 -46 -1 -96 -4 -113 -6z m308 -137 c261 -71 455 -283 533 -582 35
-134 38 -340 7 -454 -35 -126 -63 -188 -124 -279 -103 -155 -241 -263 -402
-315 -320 -104 -578 -69 -814 111 -122 92 -200 204 -254 363 -28 82 -33 112
-37 223 -6 174 20 300 91 442 106 213 308 387 534 460 178 57 331 67 466 31z"/>
<path d="M3395 6546 c-90 -22 -249 -110 -336 -185 -141 -122 -230 -359 -216
-576 19 -280 178 -486 414 -536 84 -17 271 -6 353 21 209 69 353 219 419 435
26 83 42 258 31 337 -27 192 -146 376 -296 455 -110 58 -254 77 -369 49z m304
-221 c41 -20 71 -70 71 -115 0 -19 -11 -59 -25 -88 -21 -46 -31 -56 -80 -78
-59 -27 -97 -26 -142 2 -39 24 -67 92 -67 161 -1 52 3 65 24 88 14 15 39 34
55 41 37 18 120 12 164 -11z"/>
<path d="M6140 6866 c-164 -37 -345 -137 -447 -250 -69 -75 -152 -201 -202
-306 -78 -165 -101 -465 -52 -682 67 -295 267 -519 568 -637 181 -71 495 -87
651 -34 77 25 208 92 285 143 159 106 313 316 362 495 26 93 31 301 11 410
-59 312 -200 530 -456 702 -98 66 -250 126 -403 158 -81 18 -240 18 -317 1z
m375 -140 c148 -40 260 -100 378 -201 95 -81 155 -160 214 -281 63 -129 84
-214 90 -369 4 -110 2 -144 -16 -220 -74 -312 -327 -552 -653 -619 -139 -29
-288 -15 -469 43 -119 38 -209 94 -294 180 -125 127 -190 251 -227 431 -23
109 -21 274 6 396 62 291 258 533 500 621 124 45 344 54 471 19z"/>
<path d="M6130 6505 c-138 -39 -243 -109 -315 -209 -207 -290 -190 -692 40
-921 121 -121 265 -179 445 -179 88 0 118 4 185 27 206 70 346 221 417 447 28
92 30 240 4 340 -30 113 -99 242 -172 319 -125 133 -235 181 -429 187 -88 3
-135 0 -175 -11z m300 -237 c115 -58 102 -217 -23 -277 -113 -55 -192 5 -192
146 0 62 3 75 25 98 52 57 119 69 190 33z"/>
<path d="M4632 5540 c-129 -18 -188 -50 -225 -125 -44 -88 -30 -141 56 -221
54 -50 181 -124 213 -124 8 0 11 -68 11 -250 l0 -250 -51 -42 c-80 -67 -336
-319 -367 -362 -16 -21 -29 -51 -29 -67 0 -22 5 -29 30 -34 43 -9 37 -14 309
224 72 63 160 131 170 131 13 0 143 -109 267 -224 142 -131 193 -164 230 -147
53 24 25 68 -172 267 -76 77 -162 161 -190 187 l-52 46 -3 118 c-2 65 -3 177
-1 250 l2 131 51 11 c135 29 286 139 343 248 24 47 21 59 -28 108 -52 52 -143
100 -223 118 -68 15 -252 19 -341 7z"/>
<path d="M6760 4664 c-189 -26 -256 -56 -230 -104 13 -25 8 -25 175 5 67 12
153 17 340 17 220 0 272 -3 430 -27 294 -43 527 -105 898 -239 141 -51 155
-53 164 -31 10 27 -28 55 -152 116 -234 113 -521 195 -882 250 -183 28 -587
35 -743 13z"/>
<path d="M6533 4240 c-33 -13 -18 -46 31 -69 22 -11 86 -32 141 -46 522 -139
924 -328 1290 -607 210 -159 234 -172 250 -130 4 11 -18 39 -77 97 -325 314
-918 617 -1428 730 -137 30 -180 35 -207 25z"/>
</g>
</svg>
